<?xml version="1.0"?><svg fill="#2196f3" xmlns="http://www.w3.org/2000/svg" viewBox="0 0 100 100" width="100px" height="100px">    <path d="M 50 13 C 39.346 13 31 21.346 31 32 L 31 37.525391 C 29.97 38.372391 29.822578 38.562813 29.767578 38.632812 C 29.288578 39.253813 28.592688 40.613141 29.304688 42.744141 L 31.095703 48.220703 C 31.442703 49.309703 32.107 50.149438 33 50.648438 L 33 51 C 33 52.734 33.202969 55.105688 34.167969 56.554688 C 35.945969 59.221688 38.448 61.319422 41 62.857422 L 41.001953 66.046875 C 41.008953 66.196875 40.995703 66.417266 40.970703 66.572266 L 30.382812 70.587891 C 26.162813 72.265891 23.053359 75.912609 22.068359 80.349609 C 21.869359 81.242609 22.08425 82.162953 22.65625 82.876953 C 23.22825 83.590953 24.081094 84 24.996094 84 L 75 84 C 75.915 84 76.767844 83.591906 77.339844 82.878906 C 77.911844 82.164906 78.127688 81.242609 77.929688 80.349609 C 76.943687 75.912609 73.832703 72.264031 69.595703 70.582031 L 59.025391 66.576172 C 59.004391 66.419172 58.993 66.199 59 66 L 59 62.857422 C 61.552 61.319422 64.054031 59.221688 65.832031 56.554688 C 66.128031 56.109687 66.346625 55.574 66.515625 55 L 70.5 55 C 70.776 55 71 54.776 71 54.5 L 71 47.949219 C 72.692 47.704219 74 46.258 74 44.5 L 74 39.5 C 74 37.57 72.43 36 70.5 36 L 69 36 L 69 32 C 69 21.346 60.654 13 50 13 z M 50 15 C 59.532 15 67 22.468 67 32 L 67 36.5 L 67 37 L 67 47.195312 C 66.937 47.373312 66.883422 47.524469 66.857422 47.605469 C 66.646422 48.251469 66.147937 48.834844 65.585938 49.089844 C 65.229937 49.252844 65 49.608 65 50 L 65 51 C 65 52.148 64.894984 53.177 64.708984 54 L 57 54 L 57 52.5 C 57 52.224 56.776 52 56.5 52 L 47.5 52 C 46.122 52 45 53.121 45 54.5 C 45 55.879 46.122 57 47.5 57 L 56.5 57 C 56.776 57 57 56.776 57 56.5 L 57 55 L 64.398438 55 C 64.326437 55.167 64.250969 55.321313 64.167969 55.445312 C 60.423969 61.062312 52.954 64 50 64 C 47.046 64 39.577031 61.062312 35.832031 55.445312 C 35.311031 54.664313 35 53.002 35 51 L 35 50 C 35 49.568 34.7235 49.186781 34.3125 49.050781 C 33.6805 48.842781 33.238047 48.358422 32.998047 47.607422 L 31.201172 42.117188 C 30.781172 40.861187 31.114266 40.160672 31.322266 39.888672 C 31.445266 39.756672 32.096906 39.207344 32.628906 38.777344 C 32.863906 38.586344 33 38.302 33 38 L 33 32 C 33 22.468 40.467 15 50 15 z M 68 37 L 69 37 L 70.5 37 C 71.879 37 73 38.121 73 39.5 L 73 44.5 C 73 45.879 71.879 47 70.5 47 L 68 47 L 68 37 z M 68.837891 47.998047 L 70 47.998047 L 70 53.998047 L 66.753906 53.998047 C 66.941628 52.971629 67 51.90044 67 51 L 67 50.578125 C 67.801 50.030125 68.448766 49.174609 68.759766 48.224609 C 68.776766 48.173609 68.804891 48.094047 68.837891 47.998047 z M 47.5 53 L 56 53 L 56 56 L 47.5 56 C 46.673 56 46 55.327 46 54.5 C 46 53.673 46.673 53 47.5 53 z M 43 63.945312 C 45.778 65.307313 48.409 66 50 66 C 51.591 66 54.222 65.308312 57 63.945312 L 57 65.960938 C 56.962 66.896938 57.117641 68.057609 58.056641 68.349609 L 59.046875 68.724609 C 58.539875 68.901609 57.988719 69.067891 57.386719 69.212891 C 57.117719 69.276891 56.952578 69.547406 57.017578 69.816406 C 57.073578 70.045406 57.277906 70.199219 57.503906 70.199219 C 57.541906 70.199219 57.582094 70.194547 57.621094 70.185547 C 58.714094 69.922547 59.6545 69.608953 60.4375 69.251953 L 68.871094 72.449219 C 71.891094 73.647219 74.228203 76.035953 75.408203 79.001953 L 35.5 79.001953 C 35.224 79.001953 35 79.225953 35 79.501953 C 35 79.777953 35.224 80.001953 35.5 80.001953 L 75.75 80.001953 C 75.827 80.261953 75.915609 80.516203 75.974609 80.783203 C 76.041609 81.080203 75.971297 81.388953 75.779297 81.626953 C 75.589297 81.863953 75.305 82 75 82 L 24.996094 82 C 24.691094 82 24.407797 81.863953 24.216797 81.626953 C 24.026797 81.388953 23.954484 81.081297 24.021484 80.779297 C 24.862484 76.994297 27.516469 73.879172 31.105469 72.451172 L 39.560547 69.246094 C 41.955547 70.337094 45.825 71 50 71 C 50.856 71 51.708203 70.973922 52.533203 70.919922 C 52.808203 70.901922 53.018953 70.663672 53.001953 70.388672 C 52.982953 70.112672 52.718703 69.901875 52.470703 69.921875 C 51.665703 69.974875 50.834 70 50 70 C 46.482 70 43.219359 69.523656 40.943359 68.722656 L 41.869141 68.371094 C 42.973141 68.032094 43.028 66.574 43 66 L 43 63.945312 z M 55.412109 69.599609 C 55.098109 69.648609 54.777219 69.694375 54.449219 69.734375 C 54.175219 69.767375 53.979672 70.018969 54.013672 70.292969 C 54.044672 70.546969 54.258813 70.730469 54.507812 70.730469 C 54.528813 70.730469 54.549312 70.729562 54.570312 70.726562 C 54.910313 70.684562 55.242406 70.638891 55.566406 70.587891 C 55.838406 70.544891 56.026375 70.289578 55.984375 70.017578 C 55.941375 69.744578 55.682109 69.562609 55.412109 69.599609 z M 27.5 79 C 27.224 79 27 79.224 27 79.5 C 27 79.776 27.224 80 27.5 80 L 28.5 80 C 28.776 80 29 79.776 29 79.5 C 29 79.224 28.776 79 28.5 79 L 27.5 79 z M 30.5 79 C 30.224 79 30 79.224 30 79.5 C 30 79.776 30.224 80 30.5 80 L 32.5 80 C 32.776 80 33 79.776 33 79.5 C 33 79.224 32.776 79 32.5 79 L 30.5 79 z"/></svg>