<?xml version="1.0"?><svg fill="#2196f3" xmlns="http://www.w3.org/2000/svg" viewBox="0 0 100 100" width="100px" height="100px">    <path d="M 49.5 5 C 45.866 5 42.832391 7.5702031 42.150391 11.033203 C 41.934391 11.010203 41.717 11 41.5 11 C 38.802 11 36.482953 12.654 35.501953 15 L 28 15 C 23.589 15 20 18.589 20 23 L 20 77 C 20 81.411 23.589 85 28 85 L 72 85 C 76.411 85 80 81.411 80 77 L 80 23 C 80 18.589 76.411 15 72 15 L 63.498047 15 C 62.516047 12.654 60.199 11 57.5 11 C 57.283 11 57.065609 11.010203 56.849609 11.033203 C 56.168609 7.5702031 53.134 5 49.5 5 z M 49.5 7 C 52.448 7 54.858328 9.3107656 54.986328 12.259766 C 55.000328 12.565766 55.153344 12.848344 55.402344 13.027344 C 55.650344 13.206344 55.964719 13.261734 56.261719 13.177734 C 56.672719 13.060734 57.089 13 57.5 13 C 59.981 13 62 15.019 62 17.5 C 62 17.667 61.990656 17.834 61.972656 18 L 37.027344 18 C 37.009344 17.835 37 17.668 37 17.5 C 37 15.019 39.019 13 41.5 13 C 41.912 13 42.327281 13.060734 42.738281 13.177734 C 43.033281 13.261734 43.351609 13.206344 43.599609 13.027344 C 43.848609 12.848344 43.999672 12.565766 44.013672 12.259766 C 44.140672 9.3107656 46.551 7 49.5 7 z M 49.5 10 C 48.122 10 47 11.122 47 12.5 C 47 13.878 48.122 15 49.5 15 C 50.878 15 52 13.878 52 12.5 C 52 11.122 50.878 10 49.5 10 z M 49.5 11 C 50.327 11 51 11.673 51 12.5 C 51 13.327 50.327 14 49.5 14 C 48.673 14 48 13.327 48 12.5 C 48 11.673 48.673 11 49.5 11 z M 28 17 L 35.025391 17 C 35.013391 17.166 35 17.331 35 17.5 C 35 18.103 35.082141 18.700437 35.244141 19.273438 C 35.366141 19.703437 35.760031 20 36.207031 20 L 62.792969 20 C 63.239969 20 63.634859 19.702484 63.755859 19.271484 C 63.918859 18.696484 64 18.101 64 17.5 C 64 17.331 63.986609 17.166 63.974609 17 L 72 17 C 75.309 17 78 19.691 78 23 L 78 77 C 78 80.309 75.309 83 72 83 L 28 83 C 24.691 83 22 80.309 22 77 L 22 23 C 22 19.691 24.691 17 28 17 z M 30.5 23 C 28.57 23 27 24.57 27 26.5 L 27 74.5 C 27 76.43 28.57 78 30.5 78 L 69.5 78 C 71.43 78 73 76.43 73 74.5 L 73 70.5 C 73 70.224 72.776 70 72.5 70 C 72.224 70 72 70.224 72 70.5 L 72 74.5 C 72 75.879 70.879 77 69.5 77 L 30.5 77 C 29.122 77 28 75.879 28 74.5 L 28 26.5 C 28 25.122 29.122 24 30.5 24 L 69.5 24 C 70.879 24 72 25.122 72 26.5 L 72 55.5 C 72 55.776 72.224 56 72.5 56 C 72.776 56 73 55.776 73 55.5 L 73 26.5 C 73 24.57 71.43 23 69.5 23 L 30.5 23 z M 66.570312 38 C 65.915313 37.997 65.269484 38.222406 64.771484 38.691406 L 47.474609 56.0625 L 37.181641 45.650391 C 36.163641 44.725391 34.580391 44.797406 33.650391 45.816406 C 33.201391 46.310406 32.971906 46.950187 33.003906 47.617188 C 33.035906 48.284188 33.323781 48.900031 33.800781 49.332031 L 45.818359 61.347656 C 46.278359 61.769656 46.876 62 47.5 62 C 48.141 62 48.750563 61.756641 49.226562 61.306641 L 68.216797 42.316406 C 69.218797 41.369406 69.262406 39.785203 68.316406 38.783203 C 67.857406 38.297203 67.238312 38.018 66.570312 38 z M 66.541016 38.998047 C 66.941016 39.009047 67.313844 39.17675 67.589844 39.46875 C 68.156844 40.06975 68.130531 41.020609 67.519531 41.599609 L 48.529297 60.589844 C 47.979297 61.112844 47.034813 61.105 46.507812 60.625 L 34.490234 48.609375 C 34.194234 48.340375 34.020953 47.970313 34.001953 47.570312 C 33.982953 47.170313 34.119672 46.786234 34.388672 46.490234 C 34.686672 46.162234 35.098813 45.998047 35.507812 45.998047 C 35.861812 45.998047 36.214281 46.121094 36.488281 46.371094 L 47.117188 57.125 C 47.211188 57.22 47.337703 57.273438 47.470703 57.273438 L 47.472656 57.273438 C 47.605656 57.273438 47.732172 57.220953 47.826172 57.126953 L 65.470703 39.408203 C 65.761703 39.132203 66.161016 38.973047 66.541016 38.998047 z M 72.5 58 C 72.224 58 72 58.224 72 58.5 L 72 62.5 C 72 62.776 72.224 63 72.5 63 C 72.776 63 73 62.776 73 62.5 L 73 58.5 C 73 58.224 72.776 58 72.5 58 z M 72.5 65 C 72.224 65 72 65.224 72 65.5 L 72 67.5 C 72 67.776 72.224 68 72.5 68 C 72.776 68 73 67.776 73 67.5 L 73 65.5 C 73 65.224 72.776 65 72.5 65 z"/></svg>