<svg fill="#2196f3" xmlns="http://www.w3.org/2000/svg" viewBox="0 0 100 100" width="100px" height="100px"><path d="M 49.984375 8.9863281 A 1.0001 1.0001 0 0 0 49 10 L 49 14.025391 C 29.925717 14.548061 14.548061 29.925717 14.025391 49 L 10 49 A 1.0001 1.0001 0 1 0 10 51 L 14.025391 51 C 14.548061 70.074283 29.925717 85.451939 49 85.974609 L 49 90 A 1.0001 1.0001 0 1 0 51 90 L 51 85.974609 C 70.074283 85.451939 85.451939 70.074283 85.974609 51 L 90 51 A 1.0001 1.0001 0 1 0 90 49 L 85.974609 49 C 85.451939 29.925717 70.074283 14.548061 51 14.025391 L 51 10 A 1.0001 1.0001 0 0 0 49.984375 8.9863281 z M 49 16.025391 L 49 22.021484 C 41.1966 22.303724 33.551346 25.826261 28.25 32.365234 C 24.268156 37.276662 22.226201 43.130073 22.021484 49 L 16.025391 49 C 16.545639 31.008325 31.008325 16.545639 49 16.025391 z M 51 16.025391 C 68.991675 16.545639 83.454361 31.008325 83.974609 49 L 77.972656 49 C 77.872138 46.218016 77.368116 43.454928 76.453125 40.8125 A 0.50032057 0.50032057 0 1 0 75.507812 41.140625 C 76.386435 43.678023 76.872347 46.329246 76.972656 49 L 67.949219 49 C 67.445186 39.864886 60.135114 32.554814 51 32.050781 L 51 23.015625 C 56.64557 23.221319 62.274963 25.193445 67.003906 29.027344 C 67.77772 29.653858 68.506138 30.314701 69.191406 31.005859 A 0.50064154 0.50064154 0 0 0 69.902344 30.300781 C 69.191612 29.58394 68.434998 28.899485 67.632812 28.25 C 63.129855 24.599314 57.834104 22.57614 52.460938 22.107422 C 51.974674 22.065004 51.487008 22.040465 51 22.023438 L 51 16.025391 z M 49 23.023438 L 49 32.039062 C 45.560954 32.228158 42.373046 33.372199 39.714844 35.226562 A 0.50005 0.50005 0 1 0 40.285156 36.046875 C 42.781868 34.305168 45.770256 33.22674 49 33.039062 L 49 40 A 1.0001 1.0001 0 1 0 51 40 L 51 33.050781 C 59.592781 33.551374 66.448626 40.407219 66.949219 49 L 60 49 A 1.0001 1.0001 0 1 0 60 51 L 66.949219 51 C 66.448626 59.592781 59.592781 66.448626 51 66.949219 L 51 60 A 1.0001 1.0001 0 0 0 49.984375 58.986328 A 1.0001 1.0001 0 0 0 49 60 L 49 66.949219 C 40.407219 66.448626 33.551374 59.592781 33.050781 51 L 40 51 A 1.0001 1.0001 0 1 0 40 49 L 33.042969 49 C 33.141125 47.313321 33.471185 45.690056 34.025391 44.171875 A 0.50018397 0.50018397 0 1 0 33.085938 43.828125 C 32.492554 45.453629 32.142339 47.194268 32.042969 49 L 23.015625 49 C 23.221319 43.35443 25.193445 37.725037 29.027344 32.996094 C 34.135249 26.695721 41.489671 23.304341 49 23.023438 z M 71.568359 32.421875 A 0.50005 0.50005 0 0 0 71.173828 33.238281 C 71.38349 33.501828 71.588916 33.770217 71.787109 34.041016 A 0.5002233 0.5002233 0 1 0 72.59375 33.449219 C 72.387943 33.168017 72.175369 32.889687 71.957031 32.615234 A 0.50005 0.50005 0 0 0 71.568359 32.421875 z M 73.886719 35.886719 A 0.50005 0.50005 0 0 0 73.470703 36.640625 C 73.73482 37.105039 73.986202 37.575883 74.220703 38.052734 A 0.50005 0.50005 0 1 0 75.117188 37.613281 C 74.873689 37.118133 74.613727 36.628071 74.339844 36.146484 A 0.50005 0.50005 0 0 0 73.886719 35.886719 z M 37.238281 37.496094 A 0.50005 0.50005 0 0 0 36.898438 37.65625 C 36.018067 38.590101 35.238678 39.619065 34.572266 40.724609 A 0.50005 0.50005 0 1 0 35.427734 41.240234 C 36.057322 40.195779 36.795324 39.225899 37.626953 38.34375 A 0.50005 0.50005 0 0 0 37.238281 37.496094 z M 50 48 C 48.895 48 48 48.895 48 50 C 48 51.105 48.895 52 50 52 C 51.105 52 52 51.105 52 50 C 52 48.895 51.105 48 50 48 z M 16.025391 51 L 22.027344 51 C 22.309826 58.803399 25.826777 66.449072 32.365234 71.75 C 37.276662 75.731845 43.130072 77.774185 49 77.978516 L 49 83.974609 C 31.008325 83.454361 16.545639 68.991675 16.025391 51 z M 23.023438 51 L 32.050781 51 C 32.554814 60.135114 39.864886 67.445186 49 67.949219 L 49 76.984375 C 43.35443 76.778681 37.725037 74.806555 32.996094 70.972656 C 26.695721 65.864751 23.304341 58.510329 23.023438 51 z M 67.949219 51 L 76.978516 51 C 76.773988 56.645886 74.80615 62.275129 70.972656 67.003906 C 65.864751 73.304279 58.510329 76.695659 51 76.976562 L 51 67.949219 C 60.135114 67.445186 67.445186 60.135114 67.949219 51 z M 77.980469 51 L 83.974609 51 C 83.454361 68.991675 68.991675 83.454361 51 83.974609 L 51 77.970703 C 58.803386 77.687684 66.44908 74.17126 71.75 67.632812 C 75.730938 62.722157 77.774818 56.868741 77.980469 51 z"/></svg>