<svg fill="#2196f3" xmlns="http://www.w3.org/2000/svg" viewBox="0 0 100 100" width="100px" height="100px"><path d="M 41 13 C 32.782335 13 25.323489 15.578024 19.880859 19.800781 C 14.438229 24.023538 11 29.938698 11 36.5 C 11 43.076794 14.501892 48.965066 19.966797 53.191406 C 19.963897 53.509956 19.965297 54.994959 19.634766 57.246094 C 19.27096 59.72385 18.502035 62.663303 17.199219 64.400391 A 1.0001 1.0001 0 0 0 18 66 C 23.08983 66 26.955589 64.122969 29.607422 62.166016 C 32.387089 73.032407 44.56675 81 59 81 C 61.801741 81 64.499196 80.66936 67.072266 80.107422 C 69.047697 82.417325 74.046917 87 82 87 A 1.0001 1.0001 0 0 0 82.800781 85.400391 C 81.497965 83.663303 80.72904 80.72385 80.365234 78.246094 C 80.034704 75.994959 80.036057 74.509956 80.033203 74.191406 C 85.498108 69.965066 89 64.076794 89 57.5 C 89 47.779138 81.493494 39.557285 70.982422 35.966797 C 70.801134 29.619358 67.413419 23.908437 62.119141 19.800781 C 56.676511 15.578024 49.217665 13 41 13 z M 41 15 C 48.798335 15 55.839208 17.460116 60.892578 21.380859 C 65.941441 25.298105 68.994558 30.625855 69 36.484375 L 69 36.486328 A 1.0001 1.0001 0 0 0 68.990234 36.802734 C 68.886707 42.547665 65.858529 47.766223 60.892578 51.619141 C 55.839208 55.539884 48.798335 58 41 58 C 38.145535 58 35.395058 57.668038 32.802734 57.058594 A 1.0001 1.0001 0 0 0 31.791016 57.408203 C 30.467144 59.064515 26.230429 63.063581 19.707031 63.742188 C 20.675142 61.752465 21.321187 59.539767 21.615234 57.537109 C 22.001429 54.906866 22 52.783203 22 52.783203 A 1.0001 1.0001 0 0 0 21.59375 51.980469 C 16.254087 48.031373 13 42.548137 13 36.5 C 13 30.635302 16.054052 25.301602 21.107422 21.380859 C 26.160792 17.460116 33.201665 15 41 15 z M 41 18 C 34.145382 18 27.922501 20.043932 23.388672 23.375 C 18.854843 26.706068 16 31.352949 16 36.5 C 16 39.738272 17.133506 42.786001 19.099609 45.421875 A 0.50019565 0.50019565 0 1 0 19.900391 44.822266 C 18.044494 42.33414 17 39.505728 17 36.5 C 17 31.722051 19.641798 27.369323 23.980469 24.181641 C 28.31914 20.993958 34.344618 19 41 19 C 46.342909 19 51.277443 20.285014 55.261719 22.441406 A 0.50005 0.50005 0 1 0 55.738281 21.5625 C 51.596557 19.320892 46.503091 18 41 18 z M 57.496094 22.703125 A 0.50005 0.50005 0 0 0 57.220703 23.623047 C 57.554585 23.846933 57.879598 24.080353 58.199219 24.320312 A 0.50078115 0.50078115 0 0 0 58.800781 23.519531 C 58.470402 23.271493 58.131415 23.02713 57.779297 22.791016 A 0.50005 0.50005 0 0 0 57.496094 22.703125 z M 60.486328 25.113281 A 0.50005 0.50005 0 0 0 60.152344 25.978516 C 60.87429 26.675097 61.527028 27.410087 62.099609 28.177734 A 0.50019565 0.50019565 0 1 0 62.900391 27.578125 C 62.292972 26.763772 61.60571 25.991185 60.847656 25.259766 A 0.50005 0.50005 0 0 0 60.486328 25.113281 z M 27.5 29 A 0.50005 0.50005 0 1 0 27.5 30 L 42.5 30 A 0.50005 0.50005 0 1 0 42.5 29 L 27.5 29 z M 45.5 29 A 0.50005 0.50005 0 1 0 45.5 30 L 54.5 30 A 0.50005 0.50005 0 1 0 54.5 29 L 45.5 29 z M 64.498047 30.914062 A 0.50005 0.50005 0 0 0 64.035156 31.605469 C 64.660204 33.162774 65 34.802704 65 36.5 C 65 41.277949 62.358202 45.630677 58.019531 48.818359 C 53.68086 52.006042 47.655382 54 41 54 C 40.168243 54 39.346281 53.969243 38.537109 53.908203 A 0.50040144 0.50040144 0 0 0 38.462891 54.90625 C 39.297721 54.969221 40.143757 55 41 55 C 47.854618 55 54.077499 52.956068 58.611328 49.625 C 63.145157 46.293932 66 41.647051 66 36.5 C 66 34.669296 65.633796 32.901069 64.964844 31.234375 A 0.50005 0.50005 0 0 0 64.498047 30.914062 z M 25.5 34 A 0.50005 0.50005 0 1 0 25.5 35 L 31.5 35 A 0.50005 0.50005 0 1 0 31.5 34 L 25.5 34 z M 35.5 34 A 0.50005 0.50005 0 1 0 35.5 35 L 56.5 35 A 0.50005 0.50005 0 1 0 56.5 34 L 35.5 34 z M 70.927734 38.066406 C 80.502295 41.540699 87 48.985525 87 57.5 C 87 63.548137 83.745913 69.031373 78.40625 72.980469 A 1.0001 1.0001 0 0 0 78 73.783203 C 78 73.783203 77.9986 75.906866 78.384766 78.537109 C 78.678813 80.539767 79.324858 82.752465 80.292969 84.742188 C 73.769571 84.063581 69.532856 80.064515 68.208984 78.408203 A 1.0001 1.0001 0 0 0 67.197266 78.058594 C 64.604942 78.668038 61.854465 79 59 79 C 44.866938 79 33.346434 70.933283 31.332031 60.734375 C 31.975126 60.140403 32.529653 59.572905 32.927734 59.107422 C 35.500804 59.66936 38.198259 60 41 60 C 49.217665 60 56.676511 57.421976 62.119141 53.199219 C 67.124596 49.315651 70.428263 43.999005 70.927734 38.066406 z M 25.5 39 A 0.50005 0.50005 0 1 0 25.5 40 L 56.5 40 A 0.50005 0.50005 0 1 0 56.5 39 L 25.5 39 z M 73.498047 42.523438 A 0.50005 0.50005 0 0 0 73.261719 43.466797 C 79.197878 46.681522 83 51.784605 83 57.5 C 83 60.505728 81.955506 63.33414 80.099609 65.822266 A 0.50019565 0.50019565 0 1 0 80.900391 66.421875 C 82.866494 63.786001 84 60.738272 84 57.5 C 84 51.341395 79.908122 45.929166 73.738281 42.587891 A 0.50005 0.50005 0 0 0 73.498047 42.523438 z M 27.5 44 A 0.50005 0.50005 0 1 0 27.5 45 L 41.5 45 A 0.50005 0.50005 0 1 0 41.5 44 L 27.5 44 z M 68.5 50 A 0.50005 0.50005 0 1 0 68.5 51 L 72.5 51 A 0.50005 0.50005 0 1 0 72.5 50 L 68.5 50 z M 63.5 55 A 0.50005 0.50005 0 1 0 63.5 56 L 74.5 56 A 0.50005 0.50005 0 1 0 74.5 55 L 63.5 55 z M 54.5 60 A 0.50005 0.50005 0 1 0 54.5 61 L 74.5 61 A 0.50005 0.50005 0 1 0 74.5 60 L 54.5 60 z M 35.470703 61.994141 A 0.50005 0.50005 0 0 0 35.003906 62.683594 C 38.063312 70.442296 47.687516 76 59 76 C 59.856243 76 60.702281 75.96922 61.537109 75.90625 A 0.50040144 0.50040144 0 0 0 61.462891 74.908203 C 60.653721 74.969236 59.831757 75 59 75 C 48.016484 75 38.788188 69.555704 35.933594 62.316406 A 0.50005 0.50005 0 0 0 35.470703 61.994141 z M 45.5 65 A 0.50005 0.50005 0 1 0 45.5 66 L 72.5 66 A 0.50005 0.50005 0 1 0 72.5 65 L 45.5 65 z"/></svg>