<svg fill="#ffffff" xmlns="http://www.w3.org/2000/svg" viewBox="0 0 32 32" width="64px" height="64px"><path d="M 13.6875 2.6503906 L 7.3378906 9 L 6.0546875 9 L 4.9433594 29 L 27.056641 29 L 25.945312 9 L 25 9 L 24.171875 9 L 19.757812 4.5859375 L 17.691406 6.6523438 L 13.6875 2.6503906 z M 13.6875 5.4785156 L 16.277344 8.0664062 L 15.34375 9 L 10.166016 9 L 13.6875 5.4785156 z M 19.757812 7.4140625 L 21.34375 9 L 18.171875 9 L 19.757812 7.4140625 z M 7.9453125 11 L 24.054688 11 L 24.943359 27 L 7.0566406 27 L 7.9453125 11 z M 11 13 L 11 18 C 11 20.745455 13.254545 23 16 23 C 18.745455 23 21 20.745455 21 18 L 21 13 L 19 13 L 19 18 C 19 19.654545 17.654545 21 16 21 C 14.345455 21 13 19.654545 13 18 L 13 13 L 11 13 z"/></svg>