<svg fill="#ffffff" xmlns="http://www.w3.org/2000/svg" viewBox="0 0 32 32" width="64px" height="64px"><path d="M 9 6 C 7.355469 6 6 7.355469 6 9 L 6 12.1875 C 4.84375 12.605469 4 13.707031 4 15 L 4 27 L 6 27 L 6 25 L 26 25 L 26 27 L 28 27 L 28 15 C 28 13.707031 27.15625 12.605469 26 12.1875 L 26 9 C 26 7.355469 24.644531 6 23 6 Z M 9 8 L 23 8 C 23.554688 8 24 8.445313 24 9 L 24 12.1875 C 22.84375 12.605469 22 13.707031 22 15 L 22 17 L 10 17 L 10 15 C 10 13.707031 9.15625 12.605469 8 12.1875 L 8 9 C 8 8.445313 8.445313 8 9 8 Z M 7 14 C 7.554688 14 8 14.445313 8 15 L 8 19 L 24 19 L 24 15 C 24 14.445313 24.445313 14 25 14 C 25.554688 14 26 14.445313 26 15 L 26 23 L 6 23 L 6 15 C 6 14.445313 6.445313 14 7 14 Z"/></svg>