<?xml version="1.0" encoding="UTF-8"?><svg id="a" xmlns="http://www.w3.org/2000/svg" width="164" height="47.0418" viewBox="0 0 164 47.0418"><g><path d="M73.1011,18.0654c1.5063,.8468,2.702,2.0606,3.5862,3.6421,.8835,1.5815,1.326,3.4174,1.326,5.5095s-.4425,3.935-1.326,5.5284c-.8842,1.5941-2.0795,2.8197-3.5862,3.6792-1.5067,.8591-3.1811,1.2886-5.0237,1.2886-2.665,0-4.6567-.7843-5.9768-2.3532v2.017h-6.7607V9.6609h7.0969v9.2261c1.369-1.3945,3.2496-2.0914,5.6402-2.0914,1.8429-.0004,3.5174,.4232,5.0241,1.2697Zm-3.4552,12.7183c.7969-.8587,1.1957-2.0477,1.1957-3.567,0-1.4941-.3984-2.6642-1.1957-3.5111-.7969-.8461-1.8181-1.2701-3.0626-1.2701-1.2453,0-2.2665,.424-3.0626,1.2701-.7972,.8468-1.1957,2.017-1.1957,3.5111,0,1.5193,.3981,2.7079,1.1957,3.567,.7961,.8591,1.8174,1.2886,3.0626,1.2886,1.2445,.0004,2.2658-.4292,3.0626-1.2886Z" fill="#fff"/><path d="M90.8812,17.4862c1.1579-.4603,2.4839-.691,3.978-.691v6.3875c-.648-.0748-1.1831-.1122-1.6063-.1122-1.5193,0-2.7079,.4106-3.5674,1.2323-.8591,.822-1.2882,2.0799-1.2882,3.7729v9.3005h-7.0973V17.1315h6.7611v2.428c.7217-.9213,1.6622-1.6122,2.8201-2.0732Z" fill="#fff"/><path d="M113.9464,19.0922c1.7677,1.5319,2.652,3.8795,2.652,7.0414v11.243h-6.6119v-2.6146c-1.0213,1.9673-3.0134,2.9508-5.9764,2.9508-1.5689,0-2.9264-.274-4.0713-.8217-1.146-.5477-2.0114-1.2886-2.5965-2.2225-.585-.9339-.8776-1.9984-.8776-3.1937,0-1.9173,.7339-3.4048,2.2036-4.4638,1.4693-1.0579,3.7355-1.5874,6.7981-1.5874h4.0347c-.1252-2.1414-1.5567-3.2126-4.2961-3.2126-.9709,0-1.9551,.1559-2.9508,.4669-.9961,.3118-1.8433,.7413-2.5398,1.2886l-2.3906-4.8186c1.1205-.7472,2.4839-1.3264,4.0902-1.737s3.2178-.6162,4.8371-.6162c3.3618,.0004,5.9264,.7661,7.6953,2.2973Zm-5.7898,13.5407c.6221-.3981,1.0705-.9835,1.3449-1.7555v-1.7555h-3.063c-2.0673,0-3.1001,.685-3.1001,2.0544,0,.6232,.2362,1.1205,.7095,1.4941,.4729,.3736,1.1205,.5602,1.9425,.5602,.8213,0,1.5434-.1988,2.1662-.5976Z" fill="#fff"/><path d="M142.0356,17.1315l-8.3674,20.2451h-7.321l-8.3296-20.2451h7.2839l4.8556,12.3639,5.1174-12.3639h6.7611Z" fill="#fff"/><path d="M163.8874,29.0474h-14.7171c.2988,1.0457,.8776,1.8485,1.7366,2.4091s1.9362,.8406,3.2311,.8406c.9713,0,1.8118-.1366,2.5217-.4106,.7095-.2736,1.4252-.7217,2.1477-1.3449l3.7355,3.8847c-1.9673,2.1914-4.8437,3.287-8.6288,3.287-2.3661,0-4.4449-.4484-6.2379-1.3445-1.7929-.8968-3.1815-2.1414-4.165-3.7355-.9839-1.5933-1.4752-3.3992-1.4752-5.4162,0-1.9921,.4792-3.7788,1.4382-5.3607,.9583-1.5811,2.2843-2.8197,3.978-3.7166,1.693-.8961,3.5981-1.3445,5.715-1.3445,2.0173,0,3.8477,.4173,5.491,1.2512,1.6433,.8346,2.9445,2.0425,3.9036,3.6233,.9583,1.5815,1.4382,3.4552,1.4382,5.6217-.0007,.05-.0381,.6347-.1126,1.7559Zm-13.4288-6.2753c-.7347,.6228-1.2016,1.4697-1.4004,2.5398h8.2926c-.1996-1.0705-.6665-1.9173-1.4008-2.5398-.7347-.6225-1.65-.9339-2.7453-.9339-1.0964-.0004-2.0114,.3114-2.746,.9339Z" fill="#fff"/></g><g><path d="M45.7709,37.7013l-4.9256-13.6407c.2562,.9787,.3895,2.0288,.3895,3.156,0,2.0914-.4425,3.935-1.3256,5.5284-.8846,1.5941-2.0799,2.8197-3.5866,3.6792s-3.1808,1.2886-5.0233,1.2886c-2.665,0-4.6567-.7843-5.9768-2.3532v2.017h-6.3386l22.8175,4.957c2.6935,.5839,4.9589-2.0584,3.9695-4.6323Z" fill="#2196f3"/><path d="M26.7425,23.7056c-.7976,.8468-1.1957,2.017-1.1957,3.5111,0,1.5193,.3977,2.7079,1.1957,3.567,.7961,.8591,1.8174,1.2886,3.0626,1.2886,1.2445,0,2.2658-.4295,3.0626-1.2886,.7969-.8587,1.1957-2.0477,1.1957-3.567,0-1.4941-.3984-2.6642-1.1957-3.5111-.7969-.8461-1.8181-1.2701-3.0626-1.2701-1.2453,0-2.2665,.424-3.0626,1.2701Z" fill="#2196f3"/><path d="M25.6591,18.8867c1.369-1.3945,3.2493-2.0914,5.6402-2.0914,1.8429,0,3.517,.424,5.0233,1.2701,1.5063,.8468,2.702,2.0606,3.5866,3.6421,.1033,.1855,.2,.3751,.2914,.5677L32.9597,2.2219c-.8987-2.3324-3.8928-2.9767-5.671-1.219l-8.4222,8.6577h6.7926v9.2261Z" fill="#2196f3"/><path d="M2.7331,33.8463l15.8291,3.4389V9.9738L1.0309,27.9957c-1.9544,1.934-.9876,5.267,1.7022,5.8505Z" fill="#2196f3"/></g></svg>