<svg xmlns="http://www.w3.org/2000/svg" viewBox="0 0 64 64" width="64px" height="64px"><linearGradient id="bt7140EBHx51USxa6t5ara" x1="32" x2="32" y1="-13.771" y2="71.271" gradientUnits="userSpaceOnUse" spreadMethod="reflect"><stop offset="0" stop-color="#1a6dff"/><stop offset="1" stop-color="#c822ff"/></linearGradient><path fill="url(#bt7140EBHx51USxa6t5ara)" d="M47,6H31c-3.859,0-7,3.141-7,7v1h-9c-2.757,0-5,2.243-5,5v34c0,2.757,2.243,5,5,5h22 c2.757,0,5-2.243,5-5V34h-2v19c0,1.654-1.346,3-3,3H15c-1.654,0-3-1.346-3-3V19c0-1.654,1.346-3,3-3h9v2h-7c-1.654,0-3,1.346-3,3v26 c0,1.654,1.346,3,3,3h18c1.654,0,3-1.346,3-3V36h-2v11c0,0.552-0.448,1-1,1H17c-0.552,0-1-0.448-1-1V21c0-0.552,0.448-1,1-1h7v1 c0,3.859,3.141,7,7,7h1.83c1.141,0,2.112,0.849,2.167,1.891c0.029,0.557-0.165,1.084-0.547,1.486C34.068,31.778,33.554,32,33,32v2h2 c3.193,0,5.981-2.157,6.777-5.245C41.893,28.311,42.288,28,42.739,28H47c3.859,0,7-3.141,7-7v-8C54,9.141,50.859,6,47,6z M52,21 c0,2.757-2.243,5-5,5h-4.261c-1.363,0-2.555,0.927-2.898,2.255c-0.43,1.665-1.67,2.951-3.234,3.481 c0.289-0.598,0.424-1.263,0.389-1.95C36.884,27.663,35.054,26,32.83,26H31c-2.757,0-5-2.243-5-5v-1v-2v-2v-2v-1c0-2.757,2.243-5,5-5 h16c2.757,0,5,2.243,5,5V21z"/><linearGradient id="bt7140EBHx51USxa6t5arb" x1="26" x2="26" y1="5.833" y2="58.167" gradientUnits="userSpaceOnUse" spreadMethod="reflect"><stop offset="0" stop-color="#1a6dff"/><stop offset="1" stop-color="#c822ff"/></linearGradient><path fill="url(#bt7140EBHx51USxa6t5arb)" d="M23 52H29V54H23z"/><linearGradient id="bt7140EBHx51USxa6t5arc" x1="24" x2="24" y1="5.833" y2="58.167" gradientUnits="userSpaceOnUse" spreadMethod="reflect"><stop offset="0" stop-color="#1a6dff"/><stop offset="1" stop-color="#c822ff"/></linearGradient><path fill="url(#bt7140EBHx51USxa6t5arc)" d="M20 30H28V32H20z"/><linearGradient id="bt7140EBHx51USxa6t5ard" x1="26" x2="26" y1="5.833" y2="58.167" gradientUnits="userSpaceOnUse" spreadMethod="reflect"><stop offset="0" stop-color="#1a6dff"/><stop offset="1" stop-color="#c822ff"/></linearGradient><path fill="url(#bt7140EBHx51USxa6t5ard)" d="M20 34H32V36H20z"/><linearGradient id="bt7140EBHx51USxa6t5are" x1="26" x2="26" y1="5.833" y2="58.167" gradientUnits="userSpaceOnUse" spreadMethod="reflect"><stop offset="0" stop-color="#1a6dff"/><stop offset="1" stop-color="#c822ff"/></linearGradient><path fill="url(#bt7140EBHx51USxa6t5are)" d="M20 38H32V40H20z"/><linearGradient id="bt7140EBHx51USxa6t5arf" x1="44" x2="44" y1="13.813" y2="20.19" gradientUnits="userSpaceOnUse" spreadMethod="reflect"><stop offset="0" stop-color="#6dc7ff"/><stop offset="1" stop-color="#e6abff"/></linearGradient><path fill="url(#bt7140EBHx51USxa6t5arf)" d="M44 14A3 3 0 1 0 44 20A3 3 0 1 0 44 14Z"/><linearGradient id="bt7140EBHx51USxa6t5arg" x1="34" x2="34" y1="13.813" y2="20.19" gradientUnits="userSpaceOnUse" spreadMethod="reflect"><stop offset="0" stop-color="#6dc7ff"/><stop offset="1" stop-color="#e6abff"/></linearGradient><path fill="url(#bt7140EBHx51USxa6t5arg)" d="M34 14A3 3 0 1 0 34 20A3 3 0 1 0 34 14Z"/></svg>