<svg xmlns="http://www.w3.org/2000/svg" viewBox="0 0 64 64" width="64px" height="64px"><linearGradient id="RcOhpVtWdTVMWnO~2y9fja" x1="32" x2="32" y1="13.511" y2="54.395" gradientUnits="userSpaceOnUse"><stop offset="0" stop-color="#1a6dff"/><stop offset="1" stop-color="#c822ff"/></linearGradient><path fill="url(#RcOhpVtWdTVMWnO~2y9fja)" d="M36.439,31.023C37.405,29.957,38,28.548,38,27c0-3.309-2.691-6-6-6s-6,2.691-6,6 c0,1.548,0.595,2.957,1.561,4.023L22.515,56H17v2h5.111h19.778H47v-2h-5.515L36.439,31.023z M36.818,43h-9.637l0.808-4h8.02 L36.818,43z M28.394,37l0.936-4.635C30.136,32.768,31.04,33,32,33s1.864-0.232,2.67-0.635L35.606,37H28.394z M32,23 c2.206,0,4,1.794,4,4s-1.794,4-4,4s-4-1.794-4-4S29.794,23,32,23z M26.778,45h10.445l0.808,4H25.969L26.778,45z M28,56h-3.445 l1.01-5H28V56z M34,56h-4v-5h4V56z M36,56v-5h2.435l1.01,5H36z"/><linearGradient id="RcOhpVtWdTVMWnO~2y9fjb" x1="32" x2="32" y1="13.511" y2="54.395" gradientUnits="userSpaceOnUse"><stop offset="0" stop-color="#1a6dff"/><stop offset="1" stop-color="#c822ff"/></linearGradient><path fill="url(#RcOhpVtWdTVMWnO~2y9fjb)" d="M23.589,40.585l0.425-2.102C20.384,35.951,18,31.751,18,27c0-7.72,6.28-14,14-14 s14,6.28,14,14c0,4.751-2.384,8.951-6.013,11.483l0.425,2.102C44.957,37.76,48,32.735,48,27c0-8.822-7.178-16-16-16 s-16,7.178-16,16C16,32.735,19.043,37.76,23.589,40.585z"/><g><linearGradient id="RcOhpVtWdTVMWnO~2y9fjc" x1="32" x2="32" y1="7.638" y2="44.278" gradientUnits="userSpaceOnUse"><stop offset="0" stop-color="#6dc7ff"/><stop offset="1" stop-color="#e6abff"/></linearGradient><path fill="url(#RcOhpVtWdTVMWnO~2y9fjc)" d="M32,16c-6.065,0-11,4.935-11,11c0,3.253,1.428,6.171,3.679,8.187l0.476-2.358 C23.815,31.257,23,29.223,23,27c0-4.962,4.038-9,9-9s9,4.038,9,9c0,2.223-0.815,4.257-2.156,5.829l0.476,2.358 C41.572,33.171,43,30.253,43,27C43,20.935,38.065,16,32,16z"/><linearGradient id="RcOhpVtWdTVMWnO~2y9fjd" x1="32" x2="32" y1="7.638" y2="44.278" gradientUnits="userSpaceOnUse"><stop offset="0" stop-color="#6dc7ff"/><stop offset="1" stop-color="#e6abff"/></linearGradient><circle cx="32" cy="27" r="2" fill="url(#RcOhpVtWdTVMWnO~2y9fjd)"/><linearGradient id="RcOhpVtWdTVMWnO~2y9fje" x1="32" x2="32" y1="7.638" y2="44.278" gradientUnits="userSpaceOnUse"><stop offset="0" stop-color="#6dc7ff"/><stop offset="1" stop-color="#e6abff"/></linearGradient><path fill="url(#RcOhpVtWdTVMWnO~2y9fje)" d="M32,6c-11.58,0-21,9.42-21,21c0,8.178,4.71,15.262,11.55,18.728l0.408-2.021 C17.032,40.487,13,34.205,13,27c0-10.477,8.523-19,19-19s19,8.523,19,19c0,7.205-4.032,13.487-9.958,16.707l0.408,2.021 C48.29,42.262,53,35.178,53,27C53,15.42,43.58,6,32,6z"/></g></svg>