<svg xmlns="http://www.w3.org/2000/svg" viewBox="0 0 64 64" width="64px" height="64px"><linearGradient id="YI20SK4~v1JAuNbmVyEcwa" x1="32.5" x2="32.5" y1="8.5" y2="14.751" gradientUnits="userSpaceOnUse" spreadMethod="reflect"><stop offset="0" stop-color="#6dc7ff"/><stop offset="1" stop-color="#e6abff"/></linearGradient><path fill="url(#YI20SK4~v1JAuNbmVyEcwa)" d="M20 10H45V14H20z"/><linearGradient id="YI20SK4~v1JAuNbmVyEcwb" x1="32" x2="32" y1="45.875" y2="56.162" gradientUnits="userSpaceOnUse" spreadMethod="reflect"><stop offset="0" stop-color="#6dc7ff"/><stop offset="1" stop-color="#e6abff"/></linearGradient><path fill="url(#YI20SK4~v1JAuNbmVyEcwb)" d="M32 47A4 4 0 1 0 32 55A4 4 0 1 0 32 47Z"/><linearGradient id="YI20SK4~v1JAuNbmVyEcwc" x1="32" x2="32" y1="7.75" y2="56.989" gradientUnits="userSpaceOnUse" spreadMethod="reflect"><stop offset="0" stop-color="#1a6dff"/><stop offset="1" stop-color="#c822ff"/></linearGradient><path fill="url(#YI20SK4~v1JAuNbmVyEcwc)" d="M56,33c0-2.757-2.243-5-5-5h-2c0-1.103-0.897-2-2-2h-1v-8v-1v-4c0-2.757-2.243-5-5-5H23 c-2.757,0-5,2.243-5,5v4v1v8h-1c-1.103,0-2,0.897-2,2h-2c-2.757,0-5,2.243-5,5c-1.103,0-2,0.897-2,2v2c0,1.103,0.897,2,2,2 c0,2.757,2.243,5,5,5h2c0,1.103,0.897,2,2,2h4c1.103,0,2-0.897,2-2V28c0-1.103-0.897-2-2-2h-1v-8v-1c0-1.654,1.346-3,3-3h18 c1.654,0,3,1.346,3,3v1v8h-1c-1.103,0-2,0.897-2,2v16c0,1.103,0.897,2,2,2h1v1c0,1.654-1.346,3-3,3h-4.101 c-0.465-2.279-2.484-4-4.899-4c-2.757,0-5,2.243-5,5s2.243,5,5,5c2.414,0,4.434-1.721,4.899-4H41c2.757,0,5-2.243,5-5v-1h1 c1.103,0,2-0.897,2-2h2c2.757,0,5-2.243,5-5c1.103,0,2-0.897,2-2v-2C58,33.897,57.103,33,56,33z M13,42c-1.654,0-3-1.346-3-3v-6 c0-1.654,1.346-3,3-3h2v12H13z M21,44h-4V28l4-0.002V44z M41,12H23c-1.13,0-2.162,0.391-3,1.026V13c0-1.654,1.346-3,3-3h18 c1.654,0,3,1.346,3,3v0.026C43.162,12.391,42.13,12,41,12z M32,54c-1.654,0-3-1.346-3-3s1.346-3,3-3s3,1.346,3,3S33.654,54,32,54z M47,44h-4V28h4V44z M54,39c0,1.654-1.346,3-3,3h-2V30h2c1.654,0,3,1.346,3,3V39z"/></svg>