<svg xmlns="http://www.w3.org/2000/svg" viewBox="0 0 128 128" width="80px" height="80px"><path fill="#FFF" d="M77.6,23.2l7.1-7.1c2-2,5.1-2,7.1,0l12.7,12.7c2,2,2,5.1,0,7.1L97.4,43"/><path fill="#454B54" d="M29.1 94.4c-1.3 0-2.5-.9-2.9-2.2-.4-1.6.5-3.2 2.1-3.7l27.2-7.4c1.6-.4 3.2.5 3.7 2.1.4 1.6-.5 3.2-2.1 3.7l-27.2 7.4C29.6 94.4 29.4 94.4 29.1 94.4zM32.3 82.9c-.3 0-.5 0-.8-.1-1.6-.4-2.5-2.1-2.1-3.7l4.3-15.7c.4-1.6 2.1-2.5 3.7-2.1 1.6.4 2.5 2.1 2.1 3.7l-4.3 15.7C34.8 82 33.6 82.9 32.3 82.9z"/><path fill="#FEEFF0" d="M56.3 84L46.4 74.1 36.5 64.2 77.6 23.2 97.4 43z"/><path fill="#F490A7" d="M56.3 84L46.4 74.1 46.4 74.1 87.5 33.1 97.4 43z"/><path fill="#454B54" d="M56.3 87c-.8 0-1.5-.3-2.1-.9L34.4 66.3c-1.2-1.2-1.2-3.1 0-4.2l41-41c1.2-1.2 3.1-1.2 4.2 0l19.8 19.8c.6.6.9 1.3.9 2.1 0 .8-.3 1.6-.9 2.1l-41 41C57.9 86.7 57.1 87 56.3 87zM40.8 64.2l15.6 15.6L93.1 43 77.6 27.4 40.8 64.2zM40.6 91.3c-.8 0-1.5-.3-2.1-.9L30.1 82c-1.2-1.2-1.2-3.1 0-4.2 1.2-1.2 3.1-1.2 4.2 0l8.4 8.4c1.2 1.2 1.2 3.1 0 4.2C42.2 91 41.4 91.3 40.6 91.3z"/><path fill="#454B54" d="M97.4,46c-0.8,0-1.5-0.3-2.1-0.9c-1.2-1.2-1.2-3.1,0-4.2l7.1-7.1c0.4-0.4,0.6-0.9,0.6-1.4c0-0.5-0.2-1-0.6-1.4L89.6,18.2c-0.8-0.8-2.1-0.8-2.8,0l-7.1,7.1c-1.2,1.2-3.1,1.2-4.2,0c-1.2-1.2-1.2-3.1,0-4.2l7.1-7.1c3.1-3.1,8.2-3.1,11.3,0l12.7,12.7c1.5,1.5,2.3,3.5,2.3,5.7s-0.8,4.1-2.3,5.7l-7.1,7.1C98.9,45.7,98.1,46,97.4,46z"/><g><path fill="#454B54" d="M114,109.9H34c-1.7,0-3-1.3-3-3s1.3-3,3-3h80c1.7,0,3,1.3,3,3S115.7,109.9,114,109.9z"/></g><g><path fill="#454B54" d="M14,109.9c-0.8,0-1.6-0.3-2.1-0.9c-0.6-0.6-0.9-1.3-0.9-2.1s0.3-1.6,0.9-2.1c1.1-1.1,3.1-1.1,4.2,0c0.6,0.5,0.9,1.3,0.9,2.1s-0.3,1.6-0.9,2.1C15.6,109.6,14.8,109.9,14,109.9z"/></g></svg>