<svg fill="#ffffff" xmlns="http://www.w3.org/2000/svg"  viewBox="0 0 128 128" width="64px" height="64px"><path d="M123.9 73.6L123.9 73.6c-3.9-3.9-10.2-3.9-14.2 0L83.3 100c-5 5-7.8 11.8-7.9 18.9l0 .1c0 1.7 1.3 3 3 3 7.1 0 13.9-2.8 19-7.9l26.4-26.4C127.8 83.8 127.8 77.5 123.9 73.6zM119.6 83.5L91.1 112c-2.6 2.6-6 4-9.7 4h0c0-3.6 1.4-7.1 4-9.7L114 77.8c1.6-1.6 4.1-1.6 5.7 0S121.2 81.9 119.6 83.5zM62 116h-6c-1.7 0-3 1.3-3 3s1.3 3 3 3h6c1.7 0 3-1.3 3-3S63.7 116 62 116zM106 40c-1.7 0-3 1.3-3 3v16c0 1.7 1.3 3 3 3s3-1.3 3-3V43C109 41.3 107.7 40 106 40zM86 6L32 6c-7.2 0-13 5.8-13 13v90c0 7.2 5.8 13 13 13h7c1.7 0 3-1.3 3-3s-1.3-3-3-3h-7c-3.9 0-7-3.1-7-7V19c0-3.9 3.1-7 7-7l51 0v7c0 7.2 5.8 13 13 13l10 0c1.7 0 3-1.3 3-3C109 16.3 98.7 6 86 6zM96 26c-3.9 0-7-3.1-7-7v-6.7c7 1.2 12.5 6.8 13.7 13.7L96 26z"/></svg>